# xmcd
#
# Track frame offsets: 
#        150
#        2398
#        36247
#        61736
#        85677
#        107246
#        136445
#        160576
#        188571
#        208843
#        219317
#        228908
#        252430
#
# Disc length: 3977 seconds
#
# Revision: 0
# Processed by: cddbd v1.5.2PL0 Copyright (c) Steve Scherf et al.
# Submitted via: ExactAudioCopy v0.99pb3
#
DISCID=a20f870d
DTITLE=Rance Allen - Live Experience (2004)
DYEAR=2004
DGENRE=
TTITLE0=Welcome
TTITLE1=Miracle Worker
TTITLE2=Aint No Need Of Crying
TTITLE3=Preacher Man
TTITLE4=I Belong To You
TTITLE5=I Cant Help Myself
TTITLE6=Im Gonna Make It After All
TTITLE7=Joy In My Soul
TTITLE8=That Will Be Good Enough For Me
TTITLE9=Praise The Lord
TTITLE10=Do Your Will
TTITLE11=You Make Me Wanna Dance
TTITLE12=Something About The Name Jesus
EXTD=
EXTT0=
EXTT1=
EXTT2=
EXTT3=
EXTT4=
EXTT5=
EXTT6=
EXTT7=
EXTT8=
EXTT9=
EXTT10=
EXTT11=
EXTT12=
PLAYORDER=
